<svg width="17" height="13" viewBox="0 0 17 13" fill="none" xmlns="http://www.w3.org/2000/svg">
<path fill-rule="evenodd" clip-rule="evenodd" d=" M14.8518 10.9879H2.14845C1.72795 10.9879 1.38599 10.6484 1.38599 10.2309V2.27246L8.07673 7.40418C8.20135 7.49958 8.35067 7.54751 8.50035 7.54751C8.64967 7.54751 8.799 7.49958 8.92396 7.40418L15.6142 2.27246V10.2307C15.6142 10.6484 15.2723 10.9879 14.8518 10.9879ZM14.5161 1.37598L8.50023 5.98987L2.48394 1.37598H14.5161ZM14.8517 0H2.14833C0.963641 0 0 0.956765 0 2.13288V10.2304C0 11.4064 0.963641 12.3636 2.14833 12.3636H14.8517C16.0364 12.3636 17 11.4064 17 10.2304V2.13288C17 0.956765 16.0364 0 14.8517 0Z" fill="#818181"/>
</svg>
