<svg width="18" height="15" viewBox="0 0 18 15" fill="none" xmlns="http://www.w3.org/2000/svg">
<path fill-rule="evenodd" clip-rule="evenodd" d="M17.6136 10.1284C17.2675 10.3047 16.8444 10.1652 16.6691 9.81481C15.366 7.21032 12.461 5.32151 9.00001 5.32151C5.54166 5.32151 2.63515 7.20805 1.33093 9.81478C1.15596 10.1646 0.732921 10.305 0.386386 10.1284C0.0397455 9.95172 -0.0994029 9.525 0.0756048 9.17517C0.851081 7.62519 2.08 6.31219 3.63032 5.37628L1.72707 3.45565C1.4525 3.17854 1.4525 2.72929 1.72703 2.45222C2.0016 2.17511 2.44682 2.17511 2.72143 2.45222L4.95423 4.70545C6.0066 4.26593 7.13617 4.00156 8.29685 3.92546V0.709534C8.29685 0.317659 8.61164 0 8.99998 0C9.38831 0 9.7031 0.317659 9.7031 0.709534V3.9255C10.8638 4.0016 11.9934 4.26597 13.0457 4.70549L15.2785 2.45226C15.5532 2.17518 15.9983 2.17518 16.2729 2.45226C16.5475 2.72937 16.5475 3.17861 16.2729 3.45568L14.3697 5.37632C15.92 6.31223 17.1489 7.62522 17.9244 9.1752C18.0994 9.525 17.9603 9.95175 17.6136 10.1284ZM9.00001 12.6297C8.03076 12.6297 7.24224 11.834 7.24224 10.8559C7.24224 9.87778 8.03076 9.08204 9.00001 9.08204C9.96931 9.08204 10.7578 9.87778 10.7578 10.8559C10.7578 11.834 9.96931 12.6297 9.00001 12.6297ZM9.00001 7.66297C7.25539 7.66297 5.83602 9.09531 5.83602 10.8559C5.83602 12.6164 7.25539 14.0488 9.00001 14.0488C10.7446 14.0488 12.164 12.6164 12.164 10.8559C12.164 9.09531 10.7446 7.66297 9.00001 7.66297Z" fill="#818181"/>
</svg>
