<svg width="13" height="19" viewBox="0 0 13 19" fill="none" xmlns="http://www.w3.org/2000/svg">
<path fill-rule="evenodd" clip-rule="evenodd" d=" M11.594 16.7758C11.594 16.8985 11.4875 17.0017 11.3619 17.0017H1.625C1.49895 17.0017 1.39286 16.8985 1.39286 16.7758V8.20163C1.39286 8.07893 1.49895 7.97566 1.625 7.97566H11.3619C11.4875 7.97566 11.594 8.07893 11.594 8.20163V16.7758ZM3.3252 4.43919C3.3252 2.73875 4.74672 1.35547 6.49313 1.35547C8.24012 1.35547 9.66165 2.73875 9.66165 4.43919V6.61947H3.3252V4.43919ZM11.3619 6.61983H11.0545V4.43955C11.0545 1.99137 9.0083 0 6.49315 0C3.97858 0 1.93236 1.99137 1.93236 4.43955V6.61983H1.625C0.729045 6.61983 0 7.32961 0 8.20163V16.7758C0 17.6479 0.729045 18.3576 1.625 18.3576H11.3619C12.2578 18.3576 12.9869 17.6479 12.9869 16.7758V8.20163C12.9869 7.32961 12.2578 6.61983 11.3619 6.61983Z" fill="#818181"/>
</svg>
